<mxfile host="app.diagrams.net" modified="2022-05-15T14:32:29.478Z" agent="5.0 (Windows NT 10.0; Win64; x64) AppleWebKit/537.36 (KHTML, like Gecko) Chrome/100.0.4896.127 Safari/537.36 OPR/86.0.4363.59" etag="C7BQ1Jqb-grwSMSt1NqQ" version="18.0.3" type="github">
  <diagram id="nwBQq40qvK2z3tqNqKbM" name="Page-1">
    <mxGraphModel dx="1841" dy="522" grid="1" gridSize="10" guides="1" tooltips="1" connect="1" arrows="1" fold="1" page="1" pageScale="1" pageWidth="827" pageHeight="1169" math="0" shadow="0">
      <root>
        <mxCell id="0" />
        <mxCell id="1" parent="0" />
        <mxCell id="0C5uczExlYUW2OwKM916-3" value="" style="edgeStyle=orthogonalEdgeStyle;rounded=0;orthogonalLoop=1;jettySize=auto;html=1;strokeColor=none;" parent="1" source="2AwvGdFKO9RsbJIMw99r-1" target="0C5uczExlYUW2OwKM916-1" edge="1">
          <mxGeometry relative="1" as="geometry" />
        </mxCell>
        <mxCell id="2AwvGdFKO9RsbJIMw99r-1" value="Jogador" style="rounded=0;whiteSpace=wrap;html=1;" parent="1" vertex="1">
          <mxGeometry x="-790" y="230" width="120" height="60" as="geometry" />
        </mxCell>
        <mxCell id="2AwvGdFKO9RsbJIMw99r-2" value="&lt;u&gt;CPF&lt;/u&gt;" style="ellipse;whiteSpace=wrap;html=1;" parent="1" vertex="1">
          <mxGeometry x="-790" y="290" width="120" height="50" as="geometry" />
        </mxCell>
        <mxCell id="2AwvGdFKO9RsbJIMw99r-3" value="Nome" style="ellipse;whiteSpace=wrap;html=1;" parent="1" vertex="1">
          <mxGeometry x="-790" y="330" width="120" height="50" as="geometry" />
        </mxCell>
        <mxCell id="2AwvGdFKO9RsbJIMw99r-4" value="Data Nascimento" style="ellipse;whiteSpace=wrap;html=1;" parent="1" vertex="1">
          <mxGeometry x="-790" y="370" width="120" height="50" as="geometry" />
        </mxCell>
        <mxCell id="2AwvGdFKO9RsbJIMw99r-5" value="Time" style="rounded=0;whiteSpace=wrap;html=1;" parent="1" vertex="1">
          <mxGeometry x="-470" y="230" width="120" height="60" as="geometry" />
        </mxCell>
        <mxCell id="2AwvGdFKO9RsbJIMw99r-6" value="&lt;u&gt;ID&lt;/u&gt;" style="ellipse;whiteSpace=wrap;html=1;" parent="1" vertex="1">
          <mxGeometry x="-350" y="190" width="120" height="50" as="geometry" />
        </mxCell>
        <mxCell id="2AwvGdFKO9RsbJIMw99r-7" value="&lt;u&gt;Nome&lt;/u&gt;" style="ellipse;whiteSpace=wrap;html=1;" parent="1" vertex="1">
          <mxGeometry x="-350" y="235" width="120" height="50" as="geometry" />
        </mxCell>
        <mxCell id="2AwvGdFKO9RsbJIMw99r-8" value="Data Fundação" style="ellipse;whiteSpace=wrap;html=1;" parent="1" vertex="1">
          <mxGeometry x="-350" y="280" width="120" height="50" as="geometry" />
        </mxCell>
        <mxCell id="2AwvGdFKO9RsbJIMw99r-9" value="Campeonato" style="rounded=0;whiteSpace=wrap;html=1;" parent="1" vertex="1">
          <mxGeometry x="-100" y="450" width="120" height="60" as="geometry" />
        </mxCell>
        <mxCell id="2AwvGdFKO9RsbJIMw99r-10" value="&lt;u&gt;Nome&lt;/u&gt;" style="ellipse;whiteSpace=wrap;html=1;" parent="1" vertex="1">
          <mxGeometry x="-100" y="510" width="120" height="50" as="geometry" />
        </mxCell>
        <mxCell id="2AwvGdFKO9RsbJIMw99r-11" value="Abrangência" style="ellipse;whiteSpace=wrap;html=1;" parent="1" vertex="1">
          <mxGeometry x="-100" y="550" width="120" height="50" as="geometry" />
        </mxCell>
        <mxCell id="2AwvGdFKO9RsbJIMw99r-13" value="Ano&lt;span style=&quot;color: rgba(0, 0, 0, 0); font-family: monospace; font-size: 0px; text-align: start;&quot;&gt;%3CmxGraphModel%3E%3Croot%3E%3CmxCell%20id%3D%220%22%2F%3E%3CmxCell%20id%3D%221%22%20parent%3D%220%22%2F%3E%3CmxCell%20id%3D%222%22%20value%3D%22Nome%22%20style%3D%22ellipse%3BwhiteSpace%3Dwrap%3Bhtml%3D1%3B%22%20vertex%3D%221%22%20parent%3D%221%22%3E%3CmxGeometry%20x%3D%22310%22%20y%3D%2260%22%20width%3D%22120%22%20height%3D%2250%22%20as%3D%22geometry%22%2F%3E%3C%2FmxCell%3E%3C%2Froot%3E%3C%2FmxGraphModel%3E&lt;/span&gt;" style="ellipse;whiteSpace=wrap;html=1;" parent="1" vertex="1">
          <mxGeometry x="-468.5" y="500" width="120" height="50" as="geometry" />
        </mxCell>
        <mxCell id="2AwvGdFKO9RsbJIMw99r-14" value="Data Início" style="ellipse;whiteSpace=wrap;html=1;" parent="1" vertex="1">
          <mxGeometry x="-471.5" y="540" width="120" height="50" as="geometry" />
        </mxCell>
        <mxCell id="2AwvGdFKO9RsbJIMw99r-16" value="Patrocinador" style="ellipse;shape=doubleEllipse;margin=3;whiteSpace=wrap;html=1;align=center;" parent="1" vertex="1">
          <mxGeometry x="-461.5" y="580" width="100" height="40" as="geometry" />
        </mxCell>
        <mxCell id="0C5uczExlYUW2OwKM916-1" value="Contrato" style="rhombus;whiteSpace=wrap;html=1;" parent="1" vertex="1">
          <mxGeometry x="-610" y="220" width="80" height="80" as="geometry" />
        </mxCell>
        <mxCell id="0C5uczExlYUW2OwKM916-2" value="Salário" style="ellipse;whiteSpace=wrap;html=1;" parent="1" vertex="1">
          <mxGeometry x="-630" y="330" width="120" height="50" as="geometry" />
        </mxCell>
        <mxCell id="0C5uczExlYUW2OwKM916-4" value="" style="endArrow=none;html=1;rounded=0;" parent="1" edge="1">
          <mxGeometry width="50" height="50" relative="1" as="geometry">
            <mxPoint x="-670" y="259.5" as="sourcePoint" />
            <mxPoint x="-610" y="260" as="targetPoint" />
          </mxGeometry>
        </mxCell>
        <mxCell id="0C5uczExlYUW2OwKM916-5" value="" style="endArrow=none;html=1;rounded=0;strokeWidth=4;" parent="1" edge="1">
          <mxGeometry width="50" height="50" relative="1" as="geometry">
            <mxPoint x="-530" y="259.5" as="sourcePoint" />
            <mxPoint x="-470" y="260" as="targetPoint" />
            <Array as="points">
              <mxPoint x="-470" y="260" />
            </Array>
          </mxGeometry>
        </mxCell>
        <mxCell id="0C5uczExlYUW2OwKM916-6" value="" style="endArrow=none;html=1;rounded=0;" parent="1" edge="1">
          <mxGeometry width="50" height="50" relative="1" as="geometry">
            <mxPoint x="-570" y="330" as="sourcePoint" />
            <mxPoint x="-570" y="300" as="targetPoint" />
          </mxGeometry>
        </mxCell>
        <mxCell id="0C5uczExlYUW2OwKM916-8" value="Capitão" style="shape=rhombus;perimeter=rhombusPerimeter;whiteSpace=wrap;html=1;align=center;" parent="1" vertex="1">
          <mxGeometry x="-630" y="120" width="120" height="60" as="geometry" />
        </mxCell>
        <mxCell id="0C5uczExlYUW2OwKM916-11" value="" style="endArrow=none;html=1;rounded=0;entryX=0;entryY=0.5;entryDx=0;entryDy=0;exitX=1;exitY=0;exitDx=0;exitDy=0;" parent="1" source="2AwvGdFKO9RsbJIMw99r-1" target="0C5uczExlYUW2OwKM916-8" edge="1">
          <mxGeometry width="50" height="50" relative="1" as="geometry">
            <mxPoint x="-760" y="200" as="sourcePoint" />
            <mxPoint x="-710" y="150" as="targetPoint" />
          </mxGeometry>
        </mxCell>
        <mxCell id="0C5uczExlYUW2OwKM916-12" value="" style="endArrow=none;html=1;rounded=0;entryX=1;entryY=0.5;entryDx=0;entryDy=0;exitX=0;exitY=0;exitDx=0;exitDy=0;strokeWidth=4;" parent="1" source="2AwvGdFKO9RsbJIMw99r-5" target="0C5uczExlYUW2OwKM916-8" edge="1">
          <mxGeometry width="50" height="50" relative="1" as="geometry">
            <mxPoint x="-470" y="210" as="sourcePoint" />
            <mxPoint x="-370" y="130" as="targetPoint" />
          </mxGeometry>
        </mxCell>
        <mxCell id="0C5uczExlYUW2OwKM916-15" value="" style="endArrow=none;html=1;rounded=0;startArrow=none;" parent="1" edge="1" source="T7fFnt0P_hdIjfvrILla-18">
          <mxGeometry width="50" height="50" relative="1" as="geometry">
            <mxPoint x="-350" y="479.28999999999996" as="sourcePoint" />
            <mxPoint x="-290" y="479.78999999999985" as="targetPoint" />
            <Array as="points" />
          </mxGeometry>
        </mxCell>
        <mxCell id="0C5uczExlYUW2OwKM916-19" style="edgeStyle=none;rounded=0;orthogonalLoop=1;jettySize=auto;html=1;exitX=0.5;exitY=1;exitDx=0;exitDy=0;entryX=0.5;entryY=0;entryDx=0;entryDy=0;endArrow=none;endFill=0;strokeWidth=4;" parent="1" target="T7fFnt0P_hdIjfvrILla-26" edge="1">
          <mxGeometry relative="1" as="geometry">
            <mxPoint x="-410" y="410" as="sourcePoint" />
            <mxPoint x="-410" y="450" as="targetPoint" />
          </mxGeometry>
        </mxCell>
        <mxCell id="0C5uczExlYUW2OwKM916-17" value="" style="endArrow=none;html=1;rounded=0;entryX=0.5;entryY=1;entryDx=0;entryDy=0;exitX=0.5;exitY=0;exitDx=0;exitDy=0;" parent="1" target="2AwvGdFKO9RsbJIMw99r-5" edge="1">
          <mxGeometry width="50" height="50" relative="1" as="geometry">
            <mxPoint x="-410" y="349.9999999999999" as="sourcePoint" />
            <mxPoint x="-600" y="270" as="targetPoint" />
          </mxGeometry>
        </mxCell>
        <mxCell id="0C5uczExlYUW2OwKM916-20" value="" style="endArrow=none;html=1;rounded=0;entryX=0;entryY=0.5;entryDx=0;entryDy=0;exitX=1;exitY=0.5;exitDx=0;exitDy=0;" parent="1" target="2AwvGdFKO9RsbJIMw99r-9" edge="1">
          <mxGeometry width="50" height="50" relative="1" as="geometry">
            <mxPoint x="-170" y="480" as="sourcePoint" />
            <mxPoint x="-190" y="290" as="targetPoint" />
          </mxGeometry>
        </mxCell>
        <mxCell id="T7fFnt0P_hdIjfvrILla-1" value="Junior" style="shape=rhombus;perimeter=rhombusPerimeter;whiteSpace=wrap;html=1;align=center;" vertex="1" parent="1">
          <mxGeometry x="-470" width="120" height="60" as="geometry" />
        </mxCell>
        <mxCell id="T7fFnt0P_hdIjfvrILla-9" value="" style="endArrow=none;html=1;rounded=0;exitX=0;exitY=0.5;exitDx=0;exitDy=0;entryX=0.25;entryY=0;entryDx=0;entryDy=0;" edge="1" parent="1" source="T7fFnt0P_hdIjfvrILla-1" target="2AwvGdFKO9RsbJIMw99r-5">
          <mxGeometry relative="1" as="geometry">
            <mxPoint x="-430" y="160" as="sourcePoint" />
            <mxPoint x="-270" y="160" as="targetPoint" />
          </mxGeometry>
        </mxCell>
        <mxCell id="T7fFnt0P_hdIjfvrILla-10" value="" style="endArrow=none;html=1;rounded=0;exitX=1;exitY=0.5;exitDx=0;exitDy=0;entryX=0.75;entryY=0;entryDx=0;entryDy=0;" edge="1" parent="1" source="T7fFnt0P_hdIjfvrILla-1" target="2AwvGdFKO9RsbJIMw99r-5">
          <mxGeometry relative="1" as="geometry">
            <mxPoint x="-460" y="100.00000000000011" as="sourcePoint" />
            <mxPoint x="-430" y="239.9999999999999" as="targetPoint" />
          </mxGeometry>
        </mxCell>
        <mxCell id="T7fFnt0P_hdIjfvrILla-11" value="É junior" style="text;html=1;strokeColor=none;fillColor=none;align=center;verticalAlign=middle;whiteSpace=wrap;rounded=0;fontColor=#FF0000;fontStyle=1" vertex="1" parent="1">
          <mxGeometry x="-353" y="70" width="60" height="30" as="geometry" />
        </mxCell>
        <mxCell id="T7fFnt0P_hdIjfvrILla-12" value="Tem como Junior" style="text;html=1;strokeColor=none;fillColor=none;align=center;verticalAlign=middle;whiteSpace=wrap;rounded=0;fontColor=#FF0000;fontStyle=1" vertex="1" parent="1">
          <mxGeometry x="-530" y="70" width="70" height="30" as="geometry" />
        </mxCell>
        <mxCell id="T7fFnt0P_hdIjfvrILla-13" value="N" style="text;html=1;strokeColor=none;fillColor=none;align=center;verticalAlign=middle;whiteSpace=wrap;rounded=0;fontColor=#FF0000;fontStyle=1" vertex="1" parent="1">
          <mxGeometry x="-670" y="235" width="60" height="30" as="geometry" />
        </mxCell>
        <mxCell id="T7fFnt0P_hdIjfvrILla-14" value="1" style="text;html=1;strokeColor=none;fillColor=none;align=center;verticalAlign=middle;whiteSpace=wrap;rounded=0;fontColor=#FF0000;fontStyle=1" vertex="1" parent="1">
          <mxGeometry x="-540" y="235" width="60" height="30" as="geometry" />
        </mxCell>
        <mxCell id="T7fFnt0P_hdIjfvrILla-15" value="&lt;b&gt;N&lt;/b&gt;" style="text;html=1;strokeColor=none;fillColor=none;align=center;verticalAlign=middle;whiteSpace=wrap;rounded=0;fontColor=#FF0000;" vertex="1" parent="1">
          <mxGeometry x="-430" y="310" width="60" height="30" as="geometry" />
        </mxCell>
        <mxCell id="T7fFnt0P_hdIjfvrILla-16" value="&lt;b&gt;N&lt;/b&gt;" style="text;html=1;strokeColor=none;fillColor=none;align=center;verticalAlign=middle;whiteSpace=wrap;rounded=0;fontColor=#FF0000;" vertex="1" parent="1">
          <mxGeometry x="-430" y="410" width="60" height="30" as="geometry" />
        </mxCell>
        <mxCell id="T7fFnt0P_hdIjfvrILla-18" value="N" style="text;html=1;strokeColor=none;fillColor=none;align=center;verticalAlign=middle;whiteSpace=wrap;rounded=0;fontColor=#FF0000;fontStyle=1" vertex="1" parent="1">
          <mxGeometry x="-350" y="450" width="60" height="30" as="geometry" />
        </mxCell>
        <mxCell id="T7fFnt0P_hdIjfvrILla-19" value="" style="endArrow=none;html=1;rounded=0;exitX=1;exitY=0.5;exitDx=0;exitDy=0;strokeWidth=4;" edge="1" parent="1" source="T7fFnt0P_hdIjfvrILla-26" target="T7fFnt0P_hdIjfvrILla-18">
          <mxGeometry width="50" height="50" relative="1" as="geometry">
            <mxPoint x="-350" y="479.28999999999996" as="sourcePoint" />
            <mxPoint x="-290" y="479.78999999999985" as="targetPoint" />
            <Array as="points">
              <mxPoint x="-290" y="479.79" />
            </Array>
          </mxGeometry>
        </mxCell>
        <mxCell id="T7fFnt0P_hdIjfvrILla-20" value="1" style="text;html=1;strokeColor=none;fillColor=none;align=center;verticalAlign=middle;whiteSpace=wrap;rounded=0;fontColor=#FF0000;fontStyle=1" vertex="1" parent="1">
          <mxGeometry x="-170" y="450" width="60" height="30" as="geometry" />
        </mxCell>
        <mxCell id="T7fFnt0P_hdIjfvrILla-21" value="1" style="text;html=1;strokeColor=none;fillColor=none;align=center;verticalAlign=middle;whiteSpace=wrap;rounded=0;fontColor=#FF0000;fontStyle=1" vertex="1" parent="1">
          <mxGeometry x="-690" y="180" width="60" height="30" as="geometry" />
        </mxCell>
        <mxCell id="T7fFnt0P_hdIjfvrILla-22" value="1" style="text;html=1;strokeColor=none;fillColor=none;align=center;verticalAlign=middle;whiteSpace=wrap;rounded=0;fontColor=#FF0000;fontStyle=1" vertex="1" parent="1">
          <mxGeometry x="-510" y="180" width="60" height="30" as="geometry" />
        </mxCell>
        <mxCell id="T7fFnt0P_hdIjfvrILla-24" value="1" style="text;html=1;strokeColor=none;fillColor=none;align=center;verticalAlign=middle;whiteSpace=wrap;rounded=0;fontColor=#FF0000;fontStyle=1" vertex="1" parent="1">
          <mxGeometry x="-390" y="120" width="60" height="30" as="geometry" />
        </mxCell>
        <mxCell id="T7fFnt0P_hdIjfvrILla-25" value="1" style="text;html=1;strokeColor=none;fillColor=none;align=center;verticalAlign=middle;whiteSpace=wrap;rounded=0;fontColor=#FF0000;fontStyle=1" vertex="1" parent="1">
          <mxGeometry x="-490" y="120" width="60" height="30" as="geometry" />
        </mxCell>
        <mxCell id="T7fFnt0P_hdIjfvrILla-26" value="Temporada" style="shape=ext;margin=3;double=1;whiteSpace=wrap;html=1;align=center;fontColor=#000000;" vertex="1" parent="1">
          <mxGeometry x="-460" y="460" width="100" height="40" as="geometry" />
        </mxCell>
        <mxCell id="T7fFnt0P_hdIjfvrILla-31" value="Possui" style="shape=rhombus;double=1;perimeter=rhombusPerimeter;whiteSpace=wrap;html=1;align=center;fontColor=#000000;" vertex="1" parent="1">
          <mxGeometry x="-290" y="450" width="120" height="60" as="geometry" />
        </mxCell>
        <mxCell id="T7fFnt0P_hdIjfvrILla-32" value="Participa" style="shape=rhombus;perimeter=rhombusPerimeter;whiteSpace=wrap;html=1;align=center;fontColor=#000000;" vertex="1" parent="1">
          <mxGeometry x="-470" y="350" width="120" height="60" as="geometry" />
        </mxCell>
      </root>
    </mxGraphModel>
  </diagram>
</mxfile>
